<svg width="7" height="7" viewBox="0 0 7 7" fill="none" xmlns="http://www.w3.org/2000/svg">
<path fill-rule="evenodd" clip-rule="evenodd" d="M2.04167 2.33333V3.35416L0.875 4.22916V5.83333L2.04167 5.83333C2.04167 6.1555 2.30283 6.41666 2.625 6.41666H3.20833V6.70833H3.79167V6.41666H4.375C4.69717 6.41666 4.95833 6.1555 4.95833 5.83333L6.125 5.83333V4.22916L4.95833 3.35416V2.33333C4.95833 1.41281 4.40021 0.291664 3.5 0.291664C2.59979 0.291664 2.04167 1.41281 2.04167 2.33333ZM3.79167 5.83333H4.375V2.91666V2.33333C4.375 1.69377 3.9674 0.874997 3.5 0.874997C3.0326 0.874997 2.625 1.69377 2.625 2.33333V2.91666V5.83333H3.20833V4.08333H3.79167V5.83333ZM1.45833 4.52083L2.04167 4.08333V5.25H1.45833V4.52083ZM4.95833 5.25V4.08333L5.54167 4.52083V5.25H4.95833ZM3.5 3.20833C3.17783 3.20833 2.91667 2.94716 2.91667 2.625C2.91667 2.30283 3.17783 2.04166 3.5 2.04166C3.82217 2.04166 4.08333 2.30283 4.08333 2.625C4.08333 2.94716 3.82217 3.20833 3.5 3.20833Z" fill="white"/>
</svg>
