<svg width="7" height="7" viewBox="0 0 7 7" fill="none" xmlns="http://www.w3.org/2000/svg">
<path fill-rule="evenodd" clip-rule="evenodd" d="M3.50001 6.70833C1.72809 6.70833 0.291672 5.27191 0.291672 3.5C0.291672 1.72808 1.72809 0.291664 3.50001 0.291664C5.27192 0.291664 6.70834 1.72808 6.70834 3.5C6.70834 5.27191 5.27192 6.70833 3.50001 6.70833ZM3.50001 6.125C4.94975 6.125 6.125 4.94975 6.125 3.5C6.125 2.05025 4.94975 0.874997 3.50001 0.874997C2.05026 0.874997 0.875005 2.05025 0.875005 3.5C0.875005 4.94975 2.05026 6.125 3.50001 6.125ZM3.79167 4.375C3.79167 4.85825 4.18342 5.25 4.66667 5.25C5.14992 5.25 5.54167 4.85825 5.54167 4.375C5.54167 3.89175 5.14992 3.5 4.66667 3.5C4.18342 3.5 3.79167 3.89175 3.79167 4.375ZM4.66667 4.66666C4.82775 4.66666 4.95834 4.53608 4.95834 4.375C4.95834 4.21391 4.82775 4.08333 4.66667 4.08333C4.50559 4.08333 4.375 4.21391 4.375 4.375C4.375 4.53608 4.50559 4.66666 4.66667 4.66666ZM1.45834 2.625C1.45834 3.10825 1.85009 3.5 2.33334 3.5C2.81659 3.5 3.20834 3.10825 3.20834 2.625C3.20834 2.14175 2.81659 1.75 2.33334 1.75C1.85009 1.75 1.45834 2.14175 1.45834 2.625ZM2.33334 2.91666C2.49442 2.91666 2.62501 2.78608 2.62501 2.625C2.62501 2.46391 2.49442 2.33333 2.33334 2.33333C2.17226 2.33333 2.04167 2.46391 2.04167 2.625C2.04167 2.78608 2.17226 2.91666 2.33334 2.91666ZM2.95111 5.25L4.70111 1.75H4.04892L2.29892 5.25H2.95111Z" fill="white"/>
<path d="M4.70111 1.75L4.81291 1.8059L4.90336 1.625H4.70111V1.75ZM2.95111 5.25V5.375H3.02836L3.06291 5.3059L2.95111 5.25ZM4.04892 1.75V1.625H3.97167L3.93712 1.6941L4.04892 1.75ZM2.29892 5.25L2.18712 5.1941L2.09667 5.375H2.29892V5.25ZM0.166672 3.5C0.166672 5.34095 1.65906 6.83333 3.50001 6.83333V6.58333C1.79713 6.58333 0.416672 5.20288 0.416672 3.5H0.166672ZM3.50001 0.166664C1.65906 0.166664 0.166672 1.65905 0.166672 3.5H0.416672C0.416672 1.79712 1.79713 0.416664 3.50001 0.416664V0.166664ZM6.83334 3.5C6.83334 1.65905 5.34095 0.166664 3.50001 0.166664V0.416664C5.20288 0.416664 6.58334 1.79712 6.58334 3.5H6.83334ZM3.50001 6.83333C5.34095 6.83333 6.83334 5.34095 6.83334 3.5H6.58334C6.58334 5.20288 5.20288 6.58333 3.50001 6.58333V6.83333ZM6 3.5C6 4.88071 4.88072 6 3.50001 6V6.25C5.01879 6.25 6.25 5.01878 6.25 3.5H6ZM3.50001 0.999997C4.88072 0.999997 6 2.11929 6 3.5H6.25C6.25 1.98121 5.01879 0.749997 3.50001 0.749997V0.999997ZM1.00001 3.5C1.00001 2.11929 2.11929 0.999997 3.50001 0.999997V0.749997C1.98122 0.749997 0.750005 1.98121 0.750005 3.5H1.00001ZM3.50001 6C2.11929 6 1.00001 4.88071 1.00001 3.5H0.750005C0.750005 5.01878 1.98122 6.25 3.50001 6.25V6ZM4.66667 5.125C4.25246 5.125 3.91667 4.78921 3.91667 4.375H3.66667C3.66667 4.92728 4.11439 5.375 4.66667 5.375V5.125ZM5.41667 4.375C5.41667 4.78921 5.08088 5.125 4.66667 5.125V5.375C5.21896 5.375 5.66667 4.92728 5.66667 4.375H5.41667ZM4.66667 3.625C5.08088 3.625 5.41667 3.96078 5.41667 4.375H5.66667C5.66667 3.82271 5.21896 3.375 4.66667 3.375V3.625ZM3.91667 4.375C3.91667 3.96078 4.25246 3.625 4.66667 3.625V3.375C4.11439 3.375 3.66667 3.82271 3.66667 4.375H3.91667ZM4.83334 4.375C4.83334 4.46705 4.75872 4.54166 4.66667 4.54166V4.79166C4.89679 4.79166 5.08334 4.60512 5.08334 4.375H4.83334ZM4.66667 4.20833C4.75872 4.20833 4.83334 4.28295 4.83334 4.375H5.08334C5.08334 4.14488 4.89679 3.95833 4.66667 3.95833V4.20833ZM4.5 4.375C4.5 4.28295 4.57462 4.20833 4.66667 4.20833V3.95833C4.43655 3.95833 4.25 4.14488 4.25 4.375H4.5ZM4.66667 4.54166C4.57462 4.54166 4.5 4.46704 4.5 4.375H4.25C4.25 4.60512 4.43655 4.79166 4.66667 4.79166V4.54166ZM2.33334 3.375C1.91912 3.375 1.58334 3.03921 1.58334 2.625H1.33334C1.33334 3.17728 1.78105 3.625 2.33334 3.625V3.375ZM3.08334 2.625C3.08334 3.03921 2.74755 3.375 2.33334 3.375V3.625C2.88562 3.625 3.33334 3.17728 3.33334 2.625H3.08334ZM2.33334 1.875C2.74755 1.875 3.08334 2.21078 3.08334 2.625H3.33334C3.33334 2.07271 2.88562 1.625 2.33334 1.625V1.875ZM1.58334 2.625C1.58334 2.21078 1.91912 1.875 2.33334 1.875V1.625C1.78105 1.625 1.33334 2.07271 1.33334 2.625H1.58334ZM2.50001 2.625C2.50001 2.71704 2.42539 2.79166 2.33334 2.79166V3.04166C2.56346 3.04166 2.75001 2.85512 2.75001 2.625H2.50001ZM2.33334 2.45833C2.42539 2.45833 2.50001 2.53295 2.50001 2.625H2.75001C2.75001 2.39488 2.56346 2.20833 2.33334 2.20833V2.45833ZM2.16667 2.625C2.16667 2.53295 2.24129 2.45833 2.33334 2.45833V2.20833C2.10322 2.20833 1.91667 2.39488 1.91667 2.625H2.16667ZM2.33334 2.79166C2.24129 2.79166 2.16667 2.71704 2.16667 2.625H1.91667C1.91667 2.85512 2.10322 3.04166 2.33334 3.04166V2.79166ZM4.5893 1.6941L2.8393 5.1941L3.06291 5.3059L4.81291 1.8059L4.5893 1.6941ZM4.04892 1.875H4.70111V1.625H4.04892V1.875ZM2.41072 5.3059L4.16072 1.8059L3.93712 1.6941L2.18712 5.1941L2.41072 5.3059ZM2.95111 5.125H2.29892V5.375H2.95111V5.125Z" fill="white"/>
</svg>
