<svg width="8" height="8" viewBox="0 0 8 8" fill="none" xmlns="http://www.w3.org/2000/svg">
<mask id="path-1-outside-1_2103_1998" maskUnits="userSpaceOnUse" x="0.085144" y="0.185112" width="8" height="8" fill="black">
<rect fill="white" x="0.085144" y="0.185112" width="8" height="8"/>
<path fill-rule="evenodd" clip-rule="evenodd" d="M2.54258 4.72355L2.19853 6.72955L4.00003 5.78244L5.80152 6.72955L5.45747 4.72355L6.91491 3.3029L4.90077 3.01023L4.00003 1.18511L3.09928 3.01023L1.08514 3.3029L2.54258 4.72355ZM4.92022 4.54899L5.13745 5.81554L4.00002 5.21756L2.86259 5.81554L3.07982 4.54899L2.15962 3.65202L3.43131 3.46723L4.00002 2.31489L4.56874 3.46723L5.84042 3.65202L4.92022 4.54899Z"/>
</mask>
<path fill-rule="evenodd" clip-rule="evenodd" d="M2.54258 4.72355L2.19853 6.72955L4.00003 5.78244L5.80152 6.72955L5.45747 4.72355L6.91491 3.3029L4.90077 3.01023L4.00003 1.18511L3.09928 3.01023L1.08514 3.3029L2.54258 4.72355ZM4.92022 4.54899L5.13745 5.81554L4.00002 5.21756L2.86259 5.81554L3.07982 4.54899L2.15962 3.65202L3.43131 3.46723L4.00002 2.31489L4.56874 3.46723L5.84042 3.65202L4.92022 4.54899Z" fill="white"/>
<path d="M2.19853 6.72955L1.90285 6.67883L1.80009 7.27795L2.33813 6.99509L2.19853 6.72955ZM2.54258 4.72355L2.83827 4.77426L2.86493 4.61882L2.75199 4.50873L2.54258 4.72355ZM4.00003 5.78244L4.13963 5.5169L4.00003 5.44351L3.86042 5.5169L4.00003 5.78244ZM5.80152 6.72955L5.66192 6.99509L6.19996 7.27795L6.0972 6.67883L5.80152 6.72955ZM5.45747 4.72355L5.24806 4.50873L5.13512 4.61882L5.16178 4.77426L5.45747 4.72355ZM6.91491 3.3029L7.12431 3.51772L7.5596 3.09343L6.95805 3.00602L6.91491 3.3029ZM4.90077 3.01023L4.63175 3.143L4.70155 3.28443L4.85763 3.30711L4.90077 3.01023ZM4.00003 1.18511L4.26905 1.05234L4.00003 0.507246L3.731 1.05234L4.00003 1.18511ZM3.09928 3.01023L3.14242 3.30711L3.2985 3.28443L3.3683 3.143L3.09928 3.01023ZM1.08514 3.3029L1.042 3.00602L0.440456 3.09343L0.875741 3.51772L1.08514 3.3029ZM5.13745 5.81554L4.99785 6.08108L5.53589 6.36394L5.43313 5.76482L5.13745 5.81554ZM4.92022 4.54899L4.71082 4.33417L4.59788 4.44426L4.62454 4.5997L4.92022 4.54899ZM4.00002 5.21756L4.13962 4.95202L4.00002 4.87862L3.86042 4.95202L4.00002 5.21756ZM2.86259 5.81554L2.56691 5.76482L2.46415 6.36394L3.00219 6.08108L2.86259 5.81554ZM3.07982 4.54899L3.3755 4.5997L3.40216 4.44426L3.28922 4.33417L3.07982 4.54899ZM2.15962 3.65202L2.11648 3.35514L1.51493 3.44255L1.95022 3.86684L2.15962 3.65202ZM3.43131 3.46723L3.47445 3.76411L3.63053 3.74143L3.70033 3.6L3.43131 3.46723ZM4.00002 2.31489L4.26904 2.18212L4.00002 1.63702L3.731 2.18212L4.00002 2.31489ZM4.56874 3.46723L4.29972 3.6L4.36952 3.74143L4.5256 3.76411L4.56874 3.46723ZM5.84042 3.65202L6.04983 3.86684L6.48511 3.44255L5.88356 3.35514L5.84042 3.65202ZM2.49421 6.78026L2.83827 4.77426L2.2469 4.67284L1.90285 6.67883L2.49421 6.78026ZM3.86042 5.5169L2.05893 6.46401L2.33813 6.99509L4.13963 6.04798L3.86042 5.5169ZM5.94112 6.46401L4.13963 5.5169L3.86042 6.04798L5.66192 6.99509L5.94112 6.46401ZM5.16178 4.77426L5.50584 6.78026L6.0972 6.67883L5.75315 4.67284L5.16178 4.77426ZM6.7055 3.08807L5.24806 4.50873L5.66687 4.93838L7.12431 3.51772L6.7055 3.08807ZM4.85763 3.30711L6.87177 3.59978L6.95805 3.00602L4.94391 2.71334L4.85763 3.30711ZM3.731 1.31788L4.63175 3.143L5.16979 2.87746L4.26905 1.05234L3.731 1.31788ZM3.3683 3.143L4.26905 1.31788L3.731 1.05234L2.83026 2.87746L3.3683 3.143ZM1.12828 3.59978L3.14242 3.30711L3.05614 2.71334L1.042 3.00602L1.12828 3.59978ZM2.75199 4.50873L1.29455 3.08807L0.875741 3.51772L2.33318 4.93838L2.75199 4.50873ZM5.43313 5.76482L5.2159 4.49828L4.62454 4.5997L4.84177 5.86625L5.43313 5.76482ZM3.86042 5.4831L4.99785 6.08108L5.27705 5.55L4.13962 4.95202L3.86042 5.4831ZM3.00219 6.08108L4.13962 5.4831L3.86042 4.95202L2.72299 5.55L3.00219 6.08108ZM2.78414 4.49828L2.56691 5.76482L3.15827 5.86625L3.3755 4.5997L2.78414 4.49828ZM1.95022 3.86684L2.87042 4.76382L3.28922 4.33417L2.36902 3.43719L1.95022 3.86684ZM3.38817 3.17035L2.11648 3.35514L2.20276 3.9489L3.47445 3.76411L3.38817 3.17035ZM3.731 2.18212L3.16229 3.33446L3.70033 3.6L4.26904 2.44766L3.731 2.18212ZM4.83776 3.33446L4.26904 2.18212L3.731 2.44766L4.29972 3.6L4.83776 3.33446ZM5.88356 3.35514L4.61188 3.17035L4.5256 3.76411L5.79728 3.9489L5.88356 3.35514ZM5.12963 4.76382L6.04983 3.86684L5.63102 3.43719L4.71082 4.33417L5.12963 4.76382Z" fill="white" mask="url(#path-1-outside-1_2103_1998)"/>
</svg>
